<svg width="194" height="194" viewBox="0 0 194 194" fill="none" xmlns="http://www.w3.org/2000/svg">
<path d="M84.425 98.0879C85.6564 97.114 85.8636 95.3275 84.8897 94.096C64.5679 68.4133 60.3008 51.7695 60.3008 42.328C60.3008 22.1216 76.7388 5.68359 96.9452 5.68359C117.15 5.68359 133.588 22.1216 133.588 42.328C133.588 67.3077 104.876 99.6316 96.9422 108.084C95.9268 107.007 94.577 105.545 92.9977 103.766C91.9557 102.592 90.1604 102.485 88.9866 103.527C87.8129 104.569 87.7049 106.365 88.7469 107.538C92.4086 111.665 94.833 114.095 94.9352 114.196C95.468 114.729 96.1903 115.029 96.9452 115.029C97.6985 115.029 98.4208 114.729 98.9537 114.196C100.601 112.55 139.272 73.5197 139.272 42.328C139.272 18.9882 120.285 0 96.9452 0C73.6054 0 54.6172 18.9882 54.6172 42.328C54.6172 61.0661 68.656 82.7407 80.4331 97.6231C81.407 98.8531 83.1935 99.0618 84.425 98.0879Z" fill="#E9EDFE"/>
<path d="M160.73 121.494H156.314C153.567 107.778 146.131 95.4238 135.191 86.5017C133.976 85.5101 132.185 85.6921 131.193 86.9087C130.2 88.1239 130.382 89.9148 131.599 90.9065C141.215 98.7496 147.844 109.516 150.506 121.494H148.58C145.339 121.494 142.701 124.132 142.701 127.373V130.607H108.899V127.373C108.899 124.132 106.262 121.494 103.02 121.494H90.8709C87.6295 121.494 84.9919 124.132 84.9919 127.373V130.607H51.1893V127.373C51.1893 124.132 48.5518 121.494 45.3104 121.494H43.3862C46.0475 109.516 52.6754 98.7496 62.2931 90.9065C63.5082 89.9148 63.6903 88.1239 62.6986 86.9073C61.707 85.6921 59.916 85.5101 58.7009 86.5017C47.7614 95.4238 40.3254 107.778 37.5783 121.496H33.1602C29.9188 121.496 27.2812 124.132 27.2812 127.375V139.523C27.2812 142.765 29.9188 145.402 33.1602 145.402H37.5768C40.2129 158.544 47.2049 170.521 57.4413 179.341C68.4148 188.795 82.4432 194 96.9452 194C111.446 194 125.476 188.795 136.448 179.341C146.686 170.521 153.676 158.544 156.314 145.402H160.73C163.972 145.402 166.609 142.765 166.609 139.523V127.373C166.609 124.132 163.972 121.494 160.73 121.494ZM90.6755 127.373C90.6755 127.267 90.7628 127.178 90.8709 127.178H103.02C103.128 127.178 103.215 127.265 103.215 127.373V139.523C103.215 139.632 103.128 139.719 103.02 139.719H90.8709C90.7628 139.719 90.6755 139.632 90.6755 139.523V127.373ZM32.9648 139.523V127.373C32.9648 127.267 33.0522 127.178 33.1602 127.178H45.3089C45.4169 127.178 45.5058 127.267 45.5058 127.373V139.523C45.5058 139.632 45.4169 139.719 45.3089 139.719H33.1602C33.0522 139.719 32.9648 139.632 32.9648 139.523ZM132.739 175.036C122.797 183.599 110.086 188.317 96.9452 188.317C83.8049 188.317 71.0938 183.599 61.1519 175.036C52.1647 167.293 45.9379 156.867 43.3862 145.402H45.3104C48.5518 145.402 51.1893 142.765 51.1893 139.523V136.289H84.9919V139.523C84.9919 142.765 87.628 145.402 90.8709 145.402H103.02C106.261 145.402 108.899 142.765 108.899 139.523V136.289H142.701V139.523C142.701 142.765 145.339 145.402 148.58 145.402H150.504C147.953 156.867 141.726 167.293 132.739 175.036ZM160.926 139.523C160.926 139.632 160.838 139.719 160.73 139.719H148.58C148.472 139.719 148.385 139.632 148.385 139.523V127.373C148.385 127.267 148.472 127.178 148.58 127.178H160.73C160.838 127.178 160.926 127.267 160.926 127.373V139.523Z" fill="#E9EDFE"/>
<path d="M81.9531 30.1777V57.5137C81.9531 59.0841 83.226 60.3555 84.7949 60.3555C86.3653 60.3555 87.6367 59.0841 87.6367 57.5137V30.1777C87.6367 28.6088 86.3653 27.3359 84.7949 27.3359C83.226 27.3359 81.9531 28.6088 81.9531 30.1777Z" fill="#E9EDFE"/>
<path d="M99.7871 57.5137V48.2069H104.538C110.293 48.2069 114.974 43.5253 114.974 37.7721C114.974 32.0175 110.293 27.3359 104.538 27.3359H96.9453C95.3764 27.3359 94.1035 28.6088 94.1035 30.1777V57.5137C94.1035 59.0841 95.3764 60.3555 96.9453 60.3555C98.5142 60.3555 99.7871 59.0841 99.7871 57.5137ZM99.7871 33.0195H104.538C107.159 33.0195 109.291 35.1509 109.291 37.7721C109.291 40.3919 107.159 42.5233 104.538 42.5233H99.7871V33.0195Z" fill="#E9EDFE"/>
<path d="M89.6106 97.6393C90.3343 97.067 90.456 96.0172 89.8837 95.2935C77.9421 80.2016 75.4346 70.4213 75.4346 64.8731C75.4346 52.9993 85.094 43.3398 96.9679 43.3398C108.841 43.3398 118.5 52.9993 118.5 64.8731C118.5 79.5519 101.628 98.5464 96.9661 103.514C96.3695 102.88 95.5763 102.021 94.6482 100.976C94.0359 100.286 92.9809 100.223 92.2912 100.836C91.6015 101.448 91.538 102.503 92.1503 103.193C94.3021 105.617 95.7267 107.046 95.7867 107.105C96.0999 107.418 96.5243 107.594 96.9679 107.594C97.4106 107.594 97.835 107.418 98.1481 107.105C99.1162 106.138 121.84 83.2023 121.84 64.8731C121.84 51.158 110.683 40 96.9679 40C83.2528 40 72.0947 51.158 72.0947 64.8731C72.0947 75.8842 80.3443 88.6208 87.2649 97.3662C87.8372 98.0889 88.887 98.2116 89.6106 97.6393Z" fill="#0364FF"/>
<path d="M134.45 111.393H131.854C130.24 103.333 125.871 96.0737 119.442 90.8308C118.728 90.2481 117.676 90.3551 117.093 91.07C116.509 91.7841 116.616 92.8365 117.331 93.4192C122.982 98.028 126.878 104.355 128.441 111.393H127.31C125.405 111.393 123.855 112.943 123.855 114.848V116.749H103.992V114.848C103.992 112.943 102.443 111.393 100.537 111.393H93.3984C91.4936 111.393 89.9437 112.943 89.9437 114.848V116.749H70.0803V114.848C70.0803 112.943 68.5304 111.393 66.6257 111.393H65.495C67.0588 104.355 70.9536 98.028 76.6052 93.4192C77.3193 92.8365 77.4263 91.7841 76.8435 91.0691C76.2608 90.3551 75.2084 90.2481 74.4943 90.8308C68.066 96.0737 63.6964 103.333 62.0821 111.394H59.4859C57.5811 111.394 56.0312 112.943 56.0312 114.849V121.988C56.0312 123.893 57.5811 125.443 59.4859 125.443H62.0812C63.6303 133.165 67.739 140.203 73.7542 145.386C80.2025 150.941 88.446 154 96.9678 154C105.489 154 113.733 150.941 120.181 145.386C126.197 140.203 130.305 133.165 131.854 125.443H134.45C136.354 125.443 137.904 123.893 137.904 121.988V114.848C137.904 112.943 136.354 111.393 134.45 111.393ZM93.2836 114.848C93.2836 114.786 93.3349 114.733 93.3984 114.733H100.537C100.601 114.733 100.652 114.785 100.652 114.848V121.988C100.652 122.051 100.601 122.103 100.537 122.103H93.3984C93.3349 122.103 93.2836 122.051 93.2836 121.988V114.848ZM59.3711 121.988V114.848C59.3711 114.786 59.4224 114.733 59.4859 114.733H66.6248C66.6883 114.733 66.7405 114.786 66.7405 114.848V121.988C66.7405 122.051 66.6883 122.103 66.6248 122.103H59.4859C59.4224 122.103 59.3711 122.051 59.3711 121.988ZM118.001 142.856C112.159 147.888 104.689 150.66 96.9678 150.66C89.2462 150.66 81.7767 147.888 75.9346 142.856C70.6535 138.306 66.9945 132.18 65.495 125.443H66.6257C68.5304 125.443 70.0803 123.893 70.0803 121.988V120.088H89.9437V121.988C89.9437 123.893 91.4927 125.443 93.3984 125.443H100.537C102.442 125.443 103.992 123.893 103.992 121.988V120.088H123.855V121.988C123.855 123.893 125.405 125.443 127.31 125.443H128.441C126.941 132.18 123.282 138.306 118.001 142.856ZM134.565 121.988C134.565 122.051 134.513 122.103 134.45 122.103H127.31C127.246 122.103 127.195 122.051 127.195 121.988V114.848C127.195 114.786 127.246 114.733 127.31 114.733H134.45C134.513 114.733 134.565 114.786 134.565 114.848V121.988Z" fill="#0364FF"/>
<path d="M88.1582 57.7334V73.7968C88.1582 74.7196 88.9062 75.4668 89.8281 75.4668C90.7509 75.4668 91.498 74.7196 91.498 73.7968V57.7334C91.498 56.8115 90.7509 56.0635 89.8281 56.0635C88.9062 56.0635 88.1582 56.8115 88.1582 57.7334Z" fill="#0364FF"/>
<path d="M98.6377 73.7968V68.3278H101.43C104.811 68.3278 107.562 65.5768 107.562 62.1961C107.562 58.8145 104.811 56.0635 101.43 56.0635H96.9678C96.0458 56.0635 95.2979 56.8115 95.2979 57.7334V73.7968C95.2979 74.7196 96.0458 75.4668 96.9678 75.4668C97.8897 75.4668 98.6377 74.7196 98.6377 73.7968ZM98.6377 59.4033H101.43C102.97 59.4033 104.222 60.6558 104.222 62.1961C104.222 63.7355 102.97 64.988 101.43 64.988H98.6377V59.4033Z" fill="#0364FF"/>
</svg>
