<svg width="24" height="24" viewBox="0 0 24 24" fill="none" xmlns="http://www.w3.org/2000/svg">
<path d="M20.9998 5V19H22.9572V5H20.9998ZM17.0849 19H19.0423V5H17.0849V19ZM14.1487 5H2.40402C1.86572 5 1.42529 5.45 1.42529 6V18C1.42529 18.55 1.86572 19 2.40402 19H14.1487C14.687 19 15.1274 18.55 15.1274 18V6C15.1274 5.45 14.687 5 14.1487 5ZM8.27636 7.75C9.48997 7.75 10.4785 8.76 10.4785 10C10.4785 11.24 9.48997 12.25 8.27636 12.25C7.06274 12.25 6.07423 11.24 6.07423 10C6.07423 8.76 7.06274 7.75 8.27636 7.75ZM12.6806 17H3.8721V16.25C3.8721 14.75 6.80827 14 8.27636 14C9.74444 14 12.6806 14.75 12.6806 16.25V17Z" fill="#242446"/>
</svg>
